<?xml version="1.0" encoding="utf-8"?>
<!-- Generator: Adobe Illustrator 26.0.1, SVG Export Plug-In . SVG Version: 6.00 Build 0)  -->
<svg version="1.1" id="Layer_1" xmlns="http://www.w3.org/2000/svg" xmlns:xlink="http://www.w3.org/1999/xlink" x="0px" y="0px"
	 viewBox="0 0 357 65.6" style="enable-background:new 0 0 357 65.6;" xml:space="preserve">
<style type="text/css">
	.st0{clip-path:url(#SVGID_00000183225060020531026060000004452565418226973625_);}
	.st1{fill:#FFFFFF;}
	.st2{fill:#F5891F;}
	.st3{fill:url(#SVGID_00000121998071505696270110000003363149868122882696_);}
	.st4{fill:url(#SVGID_00000181800198647507947670000010381843511169730471_);}
	.st5{fill:url(#SVGID_00000183956335282486097080000012328788978890727083_);}
	.st6{fill:#4C4C4C;}
	.st7{fill:#D12027;}
	.st8{fill:url(#SVGID_00000037686007763173552390000010089955792175671713_);}
	.st9{fill:#15DF00;}
</style>
<g>
	<g>
		<path d="M298.2-23.6c0.2,2,1.2,3.5,3.7,3.5c2,0,3.2-1,3.2-2.8c0-1.7-0.9-2.5-3.9-3.8c-5-2.1-7-4-7-7.6c0-4.5,3.3-8.1,9.7-8.1
			c6.8,0,9.9,3.7,9.8,8h-6.7c-0.1-1.7-0.8-3.2-3.2-3.2c-1.8,0-2.6,1-2.6,2.3c0,1.3,0.9,2,3.8,3.2c5.9,2.4,7.3,4.9,7.3,8.1
			c0,5.2-3.8,8.7-10.9,8.7c-7.2,0-10-3.8-10.1-8.3H298.2z"/>
	</g>
</g>
<g>
	<g>
		<defs>
			<rect id="SVGID_1_" y="0.3" width="311" height="65.2"/>
		</defs>
		<clipPath id="SVGID_00000102521194018183245830000016650439681789910917_">
			<use xlink:href="#SVGID_1_"  style="overflow:visible;"/>
		</clipPath>
		<g style="clip-path:url(#SVGID_00000102521194018183245830000016650439681789910917_);">
			<path class="st1" d="M0,65.3l13.8-65h29.1c5.1,0,9.5,0.9,13.4,2.5c3.9,1.7,6.9,4.3,9,7.8c2.2,3.5,3.2,7.9,3.2,13.3
				c0,1.4-0.1,2.9-0.3,4.5c-0.2,1.6-0.4,3.2-0.8,4.8c-1.5,7.5-3.8,13.6-6.9,18.3c-3.1,4.7-7.2,8.2-12.2,10.4
				c-5,2.3-11.2,3.4-18.7,3.4L0,65.3L0,65.3z M22,50.8h7.7c3.2,0,5.9-0.4,8.3-1.4c2.4-0.9,4.4-2.6,6.1-5.2c1.7-2.5,3-6.2,4-11.1
				c0.3-1.7,0.6-3.4,0.8-4.8c0.2-1.5,0.3-2.8,0.3-4c0-3.6-0.9-6.1-2.8-7.5c-1.9-1.4-4.9-2-9-2h-7.7L22,50.8z"/>
			<path class="st1" d="M130.1,0.3c-0.9,4.2-3.2,7.9-6.4,10.4c-3.2,2.6-7.2,4.1-11.6,4.1H96.7l-1.9,9c-11.8,2.4-18.2,7.6-22,14.1
				l7.9-37.6H130.1z"/>
			<path class="st2" d="M127.2,65.3l13.8-65h35.8c5.6,0,9.8,1.2,12.7,3.6c2.9,2.4,4.3,5.7,4.3,9.9c0,0.7-0.1,1.4-0.1,2.2
				c-0.1,0.8-0.2,1.6-0.4,2.4c-0.7,3.4-1.9,6.2-3.6,8.5c-1.7,2.3-3.8,4.1-6.2,5.5c2.1,0.9,3.7,2.1,4.9,3.6c1.2,1.5,1.8,3.5,1.8,6.1
				c0,0.6-0.1,1.3-0.1,2c-0.1,0.7-0.2,1.4-0.4,2.2c-1.3,6.1-4.2,10.9-8.7,14.2c-4.5,3.4-10.2,5-17.1,5L127.2,65.3L127.2,65.3z
				 M148.2,52.1h13.1c2.6,0,4.6-0.5,6-1.6c1.4-1.1,2.5-2.9,3-5.3c0.1-0.3,0.1-0.6,0.1-1c0-0.3,0.1-0.6,0.1-0.9
				c0-1.6-0.5-2.7-1.6-3.4c-1.1-0.7-2.8-1.1-5.2-1.1h-12.7L148.2,52.1z M153.8,26.2h12.3c2.4,0,4.3-0.5,5.6-1.6
				c1.3-1.1,2.2-2.6,2.7-4.6c0.1-0.3,0.2-0.7,0.2-1v-0.9c0-1.5-0.5-2.6-1.5-3.3c-1-0.7-2.6-1.1-4.9-1.1h-11.8L153.8,26.2z"/>
			
				<linearGradient id="SVGID_00000106126441971583251550000012492304231356320397_" gradientUnits="userSpaceOnUse" x1="147.277" y1="-317.0727" x2="165.6853" y2="-352.6294" gradientTransform="matrix(1 0 0 -1 0 -304.8396)">
				<stop  offset="0" style="stop-color:#F8BB18"/>
				<stop  offset="1" style="stop-color:#DB8327"/>
			</linearGradient>
			<path style="fill:url(#SVGID_00000106126441971583251550000012492304231356320397_);" d="M127.2,65.3l13.8-65h35.8
				c5.6,0,9.8,1.2,12.7,3.6c2.9,2.4,4.3,5.7,4.3,9.9c0,0.7-0.1,1.4-0.1,2.2c-0.1,0.8-0.2,1.6-0.4,2.4c-0.7,3.4-1.9,6.2-3.6,8.5
				c-1.7,2.3-3.8,4.1-6.2,5.5c2.1,0.9,3.7,2.1,4.9,3.6c1.2,1.5,1.8,3.5,1.8,6.1c0,0.6-0.1,1.3-0.1,2c-0.1,0.7-0.2,1.4-0.4,2.2
				c-1.3,6.1-4.2,10.9-8.7,14.2c-4.5,3.4-10.2,5-17.1,5L127.2,65.3L127.2,65.3z M148.2,52.1h13.1c2.6,0,4.6-0.5,6-1.6
				c1.4-1.1,2.5-2.9,3-5.3c0.1-0.3,0.1-0.6,0.1-1c0-0.3,0.1-0.6,0.1-0.9c0-1.6-0.5-2.7-1.6-3.4c-1.1-0.7-2.8-1.1-5.2-1.1h-12.7
				L148.2,52.1z M153.8,26.2h12.3c2.4,0,4.3-0.5,5.6-1.6c1.3-1.1,2.2-2.6,2.7-4.6c0.1-0.3,0.2-0.7,0.2-1v-0.9c0-1.5-0.5-2.6-1.5-3.3
				c-1-0.7-2.6-1.1-4.9-1.1h-11.8L153.8,26.2z"/>
			<path class="st2" d="M188.8,65.3l13.7-65h49.4l-3,14.5h-30.3l-2.3,10.6h26.6l-3.1,14.7h-26.6l-2.2,10.6h30.3l-3,14.5L188.8,65.3
				L188.8,65.3z"/>
			
				<linearGradient id="SVGID_00000008128242888335136410000016977895660611389575_" gradientUnits="userSpaceOnUse" x1="208.8381" y1="-316.5148" x2="227.777" y2="-351.2281" gradientTransform="matrix(1 0 0 -1 0 -304.8396)">
				<stop  offset="0" style="stop-color:#F8BB18"/>
				<stop  offset="1" style="stop-color:#DB8327"/>
			</linearGradient>
			<path style="fill:url(#SVGID_00000008128242888335136410000016977895660611389575_);" d="M188.8,65.3l13.7-65h49.4l-3,14.5h-30.3
				l-2.3,10.6h26.6l-3.1,14.7h-26.6l-2.2,10.6h30.3l-3,14.5L188.8,65.3L188.8,65.3z"/>
			<path class="st2" d="M259.8,65.3l10.8-50.9h-18.3l3-14.2h55.6l-2.9,14.1h-18.3l-10.8,50.9L259.8,65.3L259.8,65.3z"/>
			
				<linearGradient id="SVGID_00000081631997288415366190000012113571577208321966_" gradientUnits="userSpaceOnUse" x1="272.3746" y1="-315.6255" x2="292.0517" y2="-349.1078" gradientTransform="matrix(1 0 0 -1 0 -304.8396)">
				<stop  offset="0" style="stop-color:#F8BB18"/>
				<stop  offset="1" style="stop-color:#DB8327"/>
			</linearGradient>
			<path style="fill:url(#SVGID_00000081631997288415366190000012113571577208321966_);" d="M259.8,65.3l10.8-50.9h-18.3l3-14.2
				h55.6l-2.9,14.1h-18.3l-10.8,50.9L259.8,65.3L259.8,65.3z"/>
			<path class="st6" d="M127.5,16.4c1.8-4.2,0.7,22.3-24.6,22.3c-19,3.9-29.5,6.1-35.8,26.5c4-17.9,2-39.1,42.8-39.5
				C120.2,24.1,125.7,20.6,127.5,16.4z"/>
			<path class="st7" d="M127.3,20.7c0,0-5.2,19.9-24.6,21.8c-19.4,1.9-27.7,8.3-35.7,22.8c2.7-11.6,2-27.8,35.7-31.3
				C110.5,33.1,126.3,29.3,127.3,20.7z"/>
			<path class="st1" d="M87.2,50.8h32.1c-0.9,4.2-3.2,7.9-6.4,10.4c-3.2,2.6-7.2,4.1-11.6,4.1H68.7C75.7,55.7,78.6,50.8,87.2,50.8z"
				/>
		</g>
	</g>
	
		<linearGradient id="SVGID_00000173880919322841250430000015930193233749724854_" gradientUnits="userSpaceOnUse" x1="325.6206" y1="65.7753" x2="334.894" y2="-0.2079">
		<stop  offset="0" style="stop-color:#DB8327"/>
		<stop  offset="1" style="stop-color:#F8BB18"/>
	</linearGradient>
	<path style="fill:url(#SVGID_00000173880919322841250430000015930193233749724854_);" d="M303.1,45.5h16.3c0,0,0.4,5.4,4.1,7.4
		c3.1,1.2,4.5,1.2,7.5,0.8c1.9-0.5,4.2-1.9,4.8-4.9c0.2-2.1,0.5-4.5-2.1-7c-2.3-1.8-4.8-2.8-6.8-3.8c-2-0.9-8.8-3.8-12.2-7
		c-2.4-2.3-4.5-4.9-4.9-10.2c-0.1-4,0.4-7.5,3-11.8c2.3-3.5,7.4-7.7,15.6-8.8c7.5-0.8,17-0.4,23.7,6.1c4,4,5,9.1,5,13h-16.1
		c0,0-0.2-3.9-2.4-5.9c-1.9-1.4-2.7-1.7-5.9-1.8c-2.6,0.2-3.7,0.8-4.8,2.2c-0.8,1.4-1.8,4,0.3,6.6c1.4,1.5,2.3,1.9,7.1,4.1
		c2.8,1.1,7.3,3.1,10.7,5.5c3.4,2.4,7.4,5.9,7.9,12.6c0.3,4.5,0,10.3-5.6,16.2c-4.5,4.1-8.8,5.5-17,6.6c-7.6,0.3-14.2-0.1-20.9-4.7
		c-4.9-3.8-6-8.6-6.3-9.9S303,47,303.1,45.5z"/>
</g>
<path class="st9" d="M273.9-30.8h6.7c0,0,0.2,2.2,1.7,3.1c1.3,0.5,1.8,0.5,3.1,0.3c0.8-0.2,1.7-0.8,2-2c0.1-0.9,0.2-1.9-0.9-2.9
	c-0.9-0.7-2-1.2-2.8-1.6c-0.8-0.4-3.6-1.6-5-2.9c-1-0.9-1.9-2-2-4.2c-0.1-1.7,0.2-3.1,1.2-4.9c0.9-1.4,3.1-3.2,6.4-3.6
	c3.1-0.3,7-0.2,9.8,2.5c1.7,1.6,2.1,3.8,2.1,5.4h-6.7c0,0-0.1-1.6-1-2.4c-0.8-0.6-1.1-0.7-2.4-0.7c-1.1,0.1-1.5,0.3-2,0.9
	c-0.3,0.6-0.7,1.6,0.1,2.7c0.6,0.6,1,0.8,2.9,1.7c1.2,0.4,3,1.3,4.4,2.3s3,2.4,3.3,5.2c0.1,1.9,0,4.3-2.3,6.7
	c-1.8,1.7-3.6,2.3-7.1,2.7c-3.2,0.1-5.9,0-8.6-1.9c-2-1.6-2.5-3.6-2.6-4.1C274.1-29.1,273.9-30.2,273.9-30.8z"/>
</svg>
