<svg style="fill: #f8991d" height="511pt" viewBox="0 -27 511.99979 511" width="511pt" xmlns="http://www.w3.org/2000/svg"><path d="m509.9375 348.433594-52.179688-107.976563v-219.960937c0-11.042969-8.953124-19.996094-19.996093-19.996094h-282.269531c-11.042969 0-19.992188 8.953125-19.992188 19.996094v61.308594h-61.265625c-11.042969 0-19.996094 8.953124-19.996094 20v219.960937l-52.179687 107.972656c-8.230469 17.03125 9.746094 34.914063 26.710937 26.703125l107.90625-52.207031h219.828125c11.042969 0 19.996094-8.953125 19.996094-20v-60.738281l106.726562 51.640625c16.992188 8.21875 34.945313-9.664063 26.710938-26.703125zm-173.429688 15.804687h-204.417968c-3.015625 0-5.992188.683594-8.707032 1.996094l-60.324218 29.1875 29.175781-60.375c1.3125-2.714844 1.992187-5.6875 1.992187-8.703125v-204.542969h242.28125zm52.105469-79.308593c-2.714843-1.3125-5.695312-1.996094-8.710937-1.996094h-3.40625v-181.128906c0-11.042969-8.953125-19.996094-19.996094-19.996094h-181.011719v-41.3125h242.277344v204.542968c0 3.015626.683594 5.988282 1.996094 8.703126l29.175781 60.375zm-230.753906-79.472657c0-33.164062 28.117187-59.667969 61.535156-57.359375 28.4375 1.960938 51.363281 24.882813 53.324219 53.324219 2.277344 33.015625-17.21875 37.046875-30.230469 72.269531-9.171875 24.839844-46.683593 10.949219-37.519531-13.859375 14.65625-39.6875 28.820312-41.511719 27.84375-55.65625-.585938-8.484375-7.6875-15.585937-16.171875-16.171875-10.261719-.710937-18.78125 7.34375-18.78125 17.453125 0 11.046875-8.957031 20-20 20-11.046875 0-20-8.957031-20-20zm77.5 112.5c0 11.046875-8.957031 20-20 20-11.046875 0-20-8.953125-20-20s8.953125-20 20-20c11.042969 0 20 8.953125 20 20zm0 0"></path></svg>